<svg width="60" height="60" viewBox="0 0 60 60" fill="none" xmlns="http://www.w3.org/2000/svg">
<path d="M52.51 19.9375V15C52.51 9.485 48.025 5 42.51 5H17.51C11.995 5 7.51 9.485 7.51 15V19.995L7.32 20.005C6.6895 20.0505 6.09965 20.3332 5.66919 20.7961C5.23873 21.259 4.99962 21.8679 5 22.5V27.5C5 28.163 5.26339 28.7989 5.73223 29.2678C6.20107 29.7366 6.83696 30 7.5 30H7.51V45C7.51 46.8375 8.5175 48.43 10 49.3V52.5C10 53.163 10.2634 53.7989 10.7322 54.2678C11.2011 54.7366 11.837 55 12.5 55H15C15.663 55 16.2989 54.7366 16.7678 54.2678C17.2366 53.7989 17.5 53.163 17.5 52.5V50H42.5V52.5C42.5 53.163 42.7634 53.7989 43.2322 54.2678C43.7011 54.7366 44.337 55 45 55H47.5C48.163 55 48.7989 54.7366 49.2678 54.2678C49.7366 53.7989 50 53.163 50 52.5V49.31C50.76 48.8753 51.3922 48.2481 51.8328 47.4915C52.2734 46.7349 52.507 45.8755 52.51 45V30C53.173 30 53.8089 29.7366 54.2778 29.2678C54.7466 28.7989 55.01 28.163 55.01 27.5V22.655C55.0388 22.267 54.9772 21.8776 54.83 21.5175C54.3225 20.3 53.2425 20.0075 52.51 19.9375ZM47.515 45H12.51V32.5H47.5125L47.515 45ZM27.51 17.5V27.5H12.51V17.5H27.51ZM47.51 17.5V27.5H32.51V17.5H47.51ZM17.51 10H42.51C44.35 10 45.9475 11.0125 46.815 12.5H13.205C14.0725 11.0125 15.67 10 17.51 10Z" fill="black"/>
<path d="M18.75 42.5C20.8211 42.5 22.5 40.8211 22.5 38.75C22.5 36.6789 20.8211 35 18.75 35C16.6789 35 15 36.6789 15 38.75C15 40.8211 16.6789 42.5 18.75 42.5Z" fill="black"/>
<path d="M41.25 42.5C43.3211 42.5 45 40.8211 45 38.75C45 36.6789 43.3211 35 41.25 35C39.1789 35 37.5 36.6789 37.5 38.75C37.5 40.8211 39.1789 42.5 41.25 42.5Z" fill="black"/>
</svg>
