<svg width="60" height="60" viewBox="0 0 60 60" fill="none" xmlns="http://www.w3.org/2000/svg">
<path d="M44.375 7.5C46.5299 7.5 48.5965 8.35602 50.1202 9.87976C51.644 11.4035 52.5 13.4701 52.5 15.625V44.375C52.5 46.5299 51.644 48.5965 50.1202 50.1202C48.5965 51.644 46.5299 52.5 44.375 52.5H15.625C13.4701 52.5 11.4035 51.644 9.87976 50.1202C8.35602 48.5965 7.5 46.5299 7.5 44.375V15.625C7.5 13.4701 8.35602 11.4035 9.87976 9.87976C11.4035 8.35602 13.4701 7.5 15.625 7.5H44.375ZM48.75 21.25H11.25V44.375C11.25 46.79 13.21 48.75 15.625 48.75H44.375C45.5353 48.75 46.6481 48.2891 47.4686 47.4686C48.2891 46.6481 48.75 45.5353 48.75 44.375V21.25ZM19.375 36.25C20.2038 36.25 20.9987 36.5792 21.5847 37.1653C22.1708 37.7513 22.5 38.5462 22.5 39.375C22.5 40.2038 22.1708 40.9987 21.5847 41.5847C20.9987 42.1708 20.2038 42.5 19.375 42.5C18.5462 42.5 17.7513 42.1708 17.1653 41.5847C16.5792 40.9987 16.25 40.2038 16.25 39.375C16.25 38.5462 16.5792 37.7513 17.1653 37.1653C17.7513 36.5792 18.5462 36.25 19.375 36.25ZM30 36.25C30.8288 36.25 31.6237 36.5792 32.2097 37.1653C32.7958 37.7513 33.125 38.5462 33.125 39.375C33.125 40.2038 32.7958 40.9987 32.2097 41.5847C31.6237 42.1708 30.8288 42.5 30 42.5C29.1712 42.5 28.3763 42.1708 27.7903 41.5847C27.2042 40.9987 26.875 40.2038 26.875 39.375C26.875 38.5462 27.2042 37.7513 27.7903 37.1653C28.3763 36.5792 29.1712 36.25 30 36.25ZM19.375 26.25C20.2038 26.25 20.9987 26.5792 21.5847 27.1653C22.1708 27.7513 22.5 28.5462 22.5 29.375C22.5 30.2038 22.1708 30.9987 21.5847 31.5847C20.9987 32.1708 20.2038 32.5 19.375 32.5C18.5462 32.5 17.7513 32.1708 17.1653 31.5847C16.5792 30.9987 16.25 30.2038 16.25 29.375C16.25 28.5462 16.5792 27.7513 17.1653 27.1653C17.7513 26.5792 18.5462 26.25 19.375 26.25ZM30 26.25C30.8288 26.25 31.6237 26.5792 32.2097 27.1653C32.7958 27.7513 33.125 28.5462 33.125 29.375C33.125 30.2038 32.7958 30.9987 32.2097 31.5847C31.6237 32.1708 30.8288 32.5 30 32.5C29.1712 32.5 28.3763 32.1708 27.7903 31.5847C27.2042 30.9987 26.875 30.2038 26.875 29.375C26.875 28.5462 27.2042 27.7513 27.7903 27.1653C28.3763 26.5792 29.1712 26.25 30 26.25ZM40.625 26.25C41.4538 26.25 42.2487 26.5792 42.8347 27.1653C43.4208 27.7513 43.75 28.5462 43.75 29.375C43.75 30.2038 43.4208 30.9987 42.8347 31.5847C42.2487 32.1708 41.4538 32.5 40.625 32.5C39.7962 32.5 39.0013 32.1708 38.4153 31.5847C37.8292 30.9987 37.5 30.2038 37.5 29.375C37.5 28.5462 37.8292 27.7513 38.4153 27.1653C39.0013 26.5792 39.7962 26.25 40.625 26.25ZM44.375 11.25H15.625C14.4647 11.25 13.3519 11.7109 12.5314 12.5314C11.7109 13.3519 11.25 14.4647 11.25 15.625V17.5H48.75V15.625C48.75 14.4647 48.2891 13.3519 47.4686 12.5314C46.6481 11.7109 45.5353 11.25 44.375 11.25Z" fill="black"/>
</svg>
