<svg width="70" height="70" viewBox="0 0 70 70" fill="none" xmlns="http://www.w3.org/2000/svg">
<path d="M42.4725 13.0227C42.6343 12.8734 42.8264 12.755 43.0379 12.6742C43.2494 12.5933 43.4762 12.5517 43.7052 12.5517C43.9342 12.5517 44.1609 12.5933 44.3725 12.6742C44.584 12.755 44.7761 12.8734 44.9378 13.0227L55.384 22.6424C55.5462 22.7913 55.6748 22.9682 55.7626 23.163C55.8504 23.3578 55.8955 23.5666 55.8955 23.7775C55.8955 23.9884 55.8504 24.1972 55.7626 24.392C55.6748 24.5868 55.5462 24.7637 55.384 24.9126L44.9378 34.5323C44.776 34.6813 44.5838 34.7996 44.3723 34.8803C44.1608 34.9609 43.9341 35.0024 43.7052 35.0024C43.4763 35.0024 43.2496 34.9609 43.0381 34.8803C42.8266 34.7996 42.6344 34.6813 42.4725 34.5323C42.3107 34.3832 42.1823 34.2062 42.0946 34.0115C42.007 33.8167 41.962 33.608 41.962 33.3972C41.962 33.1863 42.007 32.9776 42.0946 32.7828C42.1823 32.5881 42.3107 32.4111 42.4725 32.262L49.9485 25.3808H15.8486C15.3869 25.3808 14.944 25.2119 14.6175 24.9112C14.291 24.6105 14.1076 24.2027 14.1076 23.7775C14.1076 23.3523 14.291 22.9445 14.6175 22.6438C14.944 22.3432 15.3869 22.1742 15.8486 22.1742H49.9485L42.4725 15.293C42.3104 15.1441 42.1818 14.9671 42.094 14.7723C42.0062 14.5776 41.961 14.3688 41.961 14.1579C41.961 13.947 42.0062 13.7382 42.094 13.5434C42.1818 13.3486 42.3104 13.1717 42.4725 13.0227ZM27.5275 35.4686C27.6896 35.6175 27.8183 35.7944 27.906 35.9892C27.9938 36.184 28.039 36.3928 28.039 36.6037C28.039 36.8146 27.9938 37.0234 27.906 37.2182C27.8183 37.413 27.6896 37.5899 27.5275 37.7388L20.0515 44.6201H54.1514C54.6131 44.6201 55.056 44.789 55.3825 45.0897C55.709 45.3903 55.8924 45.7981 55.8924 46.2233C55.8924 46.6486 55.709 47.0564 55.3825 47.357C55.056 47.6577 54.6131 47.8266 54.1514 47.8266H20.0515L27.5275 54.7079C27.8544 55.0089 28.0381 55.4172 28.0381 55.843C28.0381 56.2687 27.8544 56.677 27.5275 56.9781C27.2006 57.2792 26.7572 57.4483 26.2948 57.4483C25.8325 57.4483 25.3891 57.2792 25.0622 56.9781L14.616 47.3585C14.4538 47.2095 14.3252 47.0326 14.2374 46.8378C14.1497 46.643 14.1045 46.4342 14.1045 46.2233C14.1045 46.0125 14.1497 45.8036 14.2374 45.6089C14.3252 45.4141 14.4538 45.2372 14.616 45.0882L25.0622 35.4686C25.2239 35.3193 25.416 35.2008 25.6276 35.12C25.8391 35.0392 26.0658 34.9976 26.2948 34.9976C26.5238 34.9976 26.7506 35.0392 26.9621 35.12C27.1736 35.2008 27.3658 35.3193 27.5275 35.4686Z" fill="black"/>
</svg>
