<svg width="37" height="37" viewBox="0 0 37 37" fill="none" xmlns="http://www.w3.org/2000/svg">
<path fill-rule="evenodd" clip-rule="evenodd" d="M25.2273 13.4545C25.2273 15.2387 24.5185 16.9498 23.2569 18.2114C21.9953 19.473 20.2842 20.1818 18.5 20.1818C16.7159 20.1818 15.0048 19.473 13.7432 18.2114C12.4815 16.9498 11.7728 15.2387 11.7728 13.4545C11.7728 11.6703 12.4815 9.95923 13.7432 8.69763C15.0048 7.43602 16.7159 6.72726 18.5 6.72726C20.2842 6.72726 21.9953 7.43602 23.2569 8.69763C24.5185 9.95923 25.2273 11.6703 25.2273 13.4545ZM21.8637 13.4545C21.8637 14.3466 21.5093 15.2022 20.8785 15.833C20.2477 16.4638 19.3921 16.8181 18.5 16.8181C17.608 16.8181 16.7524 16.4638 16.1216 15.833C15.4908 15.2022 15.1364 14.3466 15.1364 13.4545C15.1364 12.5624 15.4908 11.7069 16.1216 11.0761C16.7524 10.4453 17.608 10.0909 18.5 10.0909C19.3921 10.0909 20.2477 10.4453 20.8785 11.0761C21.5093 11.7069 21.8637 12.5624 21.8637 13.4545Z" fill="black"/>
<path fill-rule="evenodd" clip-rule="evenodd" d="M18.5 0C8.28294 0 0 8.28294 0 18.5C0 28.717 8.28294 36.9999 18.5 36.9999C28.717 36.9999 36.9999 28.717 36.9999 18.5C36.9999 8.28294 28.717 0 18.5 0ZM3.36363 18.5C3.36363 22.0149 4.56276 25.2508 6.57253 27.8206C7.98396 25.967 9.80481 24.4649 11.8928 23.4316C13.9809 22.3982 16.2795 21.8616 18.6093 21.8636C20.9089 21.8614 23.1786 22.3841 25.2456 23.392C27.3126 24.3998 29.1222 25.8662 30.5367 27.6793C31.9939 25.7681 32.9751 23.5374 33.399 21.1717C33.8229 18.806 33.6774 16.3734 32.9745 14.0751C32.2716 11.7768 31.0315 9.67892 29.3569 7.95504C27.6822 6.23117 25.6212 4.93084 23.3442 4.16166C21.0673 3.39249 18.6399 3.17656 16.2629 3.53176C13.8859 3.88697 11.6277 4.80308 9.67509 6.2043C7.72247 7.60553 6.13158 9.45158 5.03406 11.5897C3.93653 13.7278 3.36393 16.0966 3.36363 18.5ZM18.5 33.6363C15.0252 33.6415 11.6554 32.4461 8.96071 30.2525C10.0454 28.6997 11.489 27.4319 13.1689 26.557C14.8488 25.6821 16.7152 25.2259 18.6093 25.2272C20.4797 25.2257 22.3235 25.6705 23.9876 26.5246C25.6516 27.3787 27.0879 28.6175 28.1771 30.1381C25.4615 32.403 22.0361 33.6412 18.5 33.6363Z" fill="black"/>
</svg>
