<svg width="60" height="60" viewBox="0 0 60 60" fill="none" xmlns="http://www.w3.org/2000/svg">
<path d="M30 5C19 5 10 14 10 25C10 38.5 27.5 53.75 28.25 54.5C28.75 54.75 29.5 55 30 55C30.5 55 31.25 54.75 31.75 54.5C32.5 53.75 50 38.5 50 25C50 14 41 5 30 5ZM30 49.25C24.75 44.25 15 33.5 15 25C15 16.75 21.75 10 30 10C38.25 10 45 16.75 45 25C45 33.25 35.25 44.25 30 49.25ZM30 15C24.5 15 20 19.5 20 25C20 30.5 24.5 35 30 35C35.5 35 40 30.5 40 25C40 19.5 35.5 15 30 15ZM30 30C27.25 30 25 27.75 25 25C25 22.25 27.25 20 30 20C32.75 20 35 22.25 35 25C35 27.75 32.75 30 30 30Z" fill="black"/>
</svg>
