<svg width="40" height="40" viewBox="0 0 40 40" fill="none" xmlns="http://www.w3.org/2000/svg">
<path fill-rule="evenodd" clip-rule="evenodd" d="M20.0001 2.5C19.3371 2.5 18.7012 2.76339 18.2324 3.23223C17.7635 3.70107 17.5001 4.33696 17.5001 5V5.25C14.6767 5.82633 12.1391 7.36045 10.3169 9.59274C8.49458 11.825 7.49953 14.6184 7.50012 17.5V27.5L4.48762 30.82C3.03012 32.4275 4.17012 35 6.33762 35H15.6701C16.109 35.76 16.7402 36.3912 17.5002 36.83C18.2603 37.2688 19.1225 37.4998 20.0001 37.4998C20.8778 37.4998 21.7399 37.2688 22.5 36.83C23.2601 36.3912 23.8913 35.76 24.3301 35H33.6626C35.8301 35 36.9701 32.425 35.5126 30.82L32.5001 27.5V17.5C32.5007 14.6184 31.5057 11.825 29.6834 9.59274C27.8611 7.36045 25.3235 5.82633 22.5001 5.25V5C22.5001 4.33696 22.2367 3.70107 21.7679 3.23223C21.299 2.76339 20.6632 2.5 20.0001 2.5ZM11.2501 28.95L10.2751 30.02L9.16012 31.25H30.8401L29.7226 30.02L28.7501 28.9475V17.5C28.7501 16.3509 28.5238 15.2131 28.0841 14.1515C27.6443 13.0899 26.9998 12.1253 26.1873 11.3128C25.3748 10.5003 24.4102 9.85578 23.3486 9.41605C22.287 8.97632 21.1492 8.75 20.0001 8.75C18.8511 8.75 17.7132 8.97632 16.6516 9.41605C15.59 9.85578 14.6254 10.5003 13.8129 11.3128C13.0004 12.1253 12.3559 13.0899 11.9162 14.1515C11.4764 15.2131 11.2501 16.3509 11.2501 17.5V28.95Z" fill="black"/>
</svg>
